<svg id="visual" viewBox="0 0 900 600" width="900" height="600" xmlns="http://www.w3.org/2000/svg" xmlns:xlink="http://www.w3.org/1999/xlink" version="1.1"><rect x="0" y="0" width="900" height="600" fill="#fff"></rect><path d="M0 174L21.5 173.7C43 173.3 86 172.7 128.8 170.8C171.7 169 214.3 166 257.2 191.2C300 216.3 343 269.7 385.8 271.2C428.7 272.7 471.3 222.3 514.2 202C557 181.7 600 191.3 642.8 207.8C685.7 224.3 728.3 247.7 771.2 253.2C814 258.7 857 246.3 878.5 240.2L900 234L900 601L878.5 601C857 601 814 601 771.2 601C728.3 601 685.7 601 642.8 601C600 601 557 601 514.2 601C471.3 601 428.7 601 385.8 601C343 601 300 601 257.2 601C214.3 601 171.7 601 128.8 601C86 601 43 601 21.5 601L0 601Z" fill="#69c5fa"></path><path d="M0 332L21.5 325.3C43 318.7 86 305.3 128.8 310.8C171.7 316.3 214.3 340.7 257.2 350.3C300 360 343 355 385.8 346.8C428.7 338.7 471.3 327.3 514.2 327.3C557 327.3 600 338.7 642.8 344.5C685.7 350.3 728.3 350.7 771.2 358C814 365.3 857 379.7 878.5 386.8L900 394L900 601L878.5 601C857 601 814 601 771.2 601C728.3 601 685.7 601 642.8 601C600 601 557 601 514.2 601C471.3 601 428.7 601 385.8 601C343 601 300 601 257.2 601C214.3 601 171.7 601 128.8 601C86 601 43 601 21.5 601L0 601Z" fill="#73b9fc"></path><path d="M0 412L21.5 410.2C43 408.3 86 404.7 128.8 393.3C171.7 382 214.3 363 257.2 352.7C300 342.3 343 340.7 385.8 337.7C428.7 334.7 471.3 330.3 514.2 330.2C557 330 600 334 642.8 345.2C685.7 356.3 728.3 374.7 771.2 393.7C814 412.7 857 432.3 878.5 442.2L900 452L900 601L878.5 601C857 601 814 601 771.2 601C728.3 601 685.7 601 642.8 601C600 601 557 601 514.2 601C471.3 601 428.7 601 385.8 601C343 601 300 601 257.2 601C214.3 601 171.7 601 128.8 601C86 601 43 601 21.5 601L0 601Z" fill="#86acfa"></path><path d="M0 486L21.5 487.2C43 488.3 86 490.7 128.8 474.5C171.7 458.3 214.3 423.7 257.2 412.7C300 401.7 343 414.3 385.8 414.5C428.7 414.7 471.3 402.3 514.2 397C557 391.7 600 393.3 642.8 410.5C685.7 427.7 728.3 460.3 771.2 462.8C814 465.3 857 437.7 878.5 423.8L900 410L900 601L878.5 601C857 601 814 601 771.2 601C728.3 601 685.7 601 642.8 601C600 601 557 601 514.2 601C471.3 601 428.7 601 385.8 601C343 601 300 601 257.2 601C214.3 601 171.7 601 128.8 601C86 601 43 601 21.5 601L0 601Z" fill="#9d9df2"></path><path d="M0 482L21.5 485.3C43 488.7 86 495.3 128.8 510C171.7 524.7 214.3 547.3 257.2 548.3C300 549.3 343 528.7 385.8 520.7C428.7 512.7 471.3 517.3 514.2 527.7C557 538 600 554 642.8 548.2C685.7 542.3 728.3 514.7 771.2 502.8C814 491 857 495 878.5 497L900 499L900 601L878.5 601C857 601 814 601 771.2 601C728.3 601 685.7 601 642.8 601C600 601 557 601 514.2 601C471.3 601 428.7 601 385.8 601C343 601 300 601 257.2 601C214.3 601 171.7 601 128.8 601C86 601 43 601 21.5 601L0 601Z" fill="#b58ce4"></path></svg>