<svg id="visual" viewBox="0 0 2560 1600" width="2560" height="1600" xmlns="http://www.w3.org/2000/svg" xmlns:xlink="http://www.w3.org/1999/xlink" version="1.1"><rect x="0" y="0" width="2560" height="1600" fill="#ffffff"></rect><path d="M0 820L61 835.5C122 851 244 882 365.8 874.5C487.7 867 609.3 821 731.2 807.5C853 794 975 813 1097 770C1219 727 1341 622 1463 583.2C1585 544.3 1707 571.7 1828.8 601.7C1950.7 631.7 2072.3 664.3 2194.2 666.8C2316 669.3 2438 641.7 2499 627.8L2560 614L2560 1601L2499 1601C2438 1601 2316 1601 2194.2 1601C2072.3 1601 1950.7 1601 1828.8 1601C1707 1601 1585 1601 1463 1601C1341 1601 1219 1601 1097 1601C975 1601 853 1601 731.2 1601C609.3 1601 487.7 1601 365.8 1601C244 1601 122 1601 61 1601L0 1601Z" fill="#69c5fa"></path><path d="M0 723L61 733.2C122 743.3 244 763.7 365.8 813.5C487.7 863.3 609.3 942.7 731.2 977C853 1011.3 975 1000.7 1097 940.8C1219 881 1341 772 1463 762.5C1585 753 1707 843 1828.8 905.3C1950.7 967.7 2072.3 1002.3 2194.2 1006.3C2316 1010.3 2438 983.7 2499 970.3L2560 957L2560 1601L2499 1601C2438 1601 2316 1601 2194.2 1601C2072.3 1601 1950.7 1601 1828.8 1601C1707 1601 1585 1601 1463 1601C1341 1601 1219 1601 1097 1601C975 1601 853 1601 731.2 1601C609.3 1601 487.7 1601 365.8 1601C244 1601 122 1601 61 1601L0 1601Z" fill="#73b9fc"></path><path d="M0 997L61 970.5C122 944 244 891 365.8 867.7C487.7 844.3 609.3 850.7 731.2 873.7C853 896.7 975 936.3 1097 926.7C1219 917 1341 858 1463 844.2C1585 830.3 1707 861.7 1828.8 884.7C1950.7 907.7 2072.3 922.3 2194.2 911.8C2316 901.3 2438 865.7 2499 847.8L2560 830L2560 1601L2499 1601C2438 1601 2316 1601 2194.2 1601C2072.3 1601 1950.7 1601 1828.8 1601C1707 1601 1585 1601 1463 1601C1341 1601 1219 1601 1097 1601C975 1601 853 1601 731.2 1601C609.3 1601 487.7 1601 365.8 1601C244 1601 122 1601 61 1601L0 1601Z" fill="#86acfa"></path><path d="M0 1138L61 1131.5C122 1125 244 1112 365.8 1098.5C487.7 1085 609.3 1071 731.2 1087C853 1103 975 1149 1097 1136.3C1219 1123.7 1341 1052.3 1463 1005.2C1585 958 1707 935 1828.8 931.8C1950.7 928.7 2072.3 945.3 2194.2 990.7C2316 1036 2438 1110 2499 1147L2560 1184L2560 1601L2499 1601C2438 1601 2316 1601 2194.2 1601C2072.3 1601 1950.7 1601 1828.8 1601C1707 1601 1585 1601 1463 1601C1341 1601 1219 1601 1097 1601C975 1601 853 1601 731.2 1601C609.3 1601 487.7 1601 365.8 1601C244 1601 122 1601 61 1601L0 1601Z" fill="#9d9df2"></path><path d="M0 1039L61 1083.5C122 1128 244 1217 365.8 1224.7C487.7 1232.3 609.3 1158.7 731.2 1143.5C853 1128.3 975 1171.7 1097 1194.8C1219 1218 1341 1221 1463 1195.3C1585 1169.7 1707 1115.3 1828.8 1100.5C1950.7 1085.7 2072.3 1110.3 2194.2 1127.7C2316 1145 2438 1155 2499 1160L2560 1165L2560 1601L2499 1601C2438 1601 2316 1601 2194.2 1601C2072.3 1601 1950.7 1601 1828.8 1601C1707 1601 1585 1601 1463 1601C1341 1601 1219 1601 1097 1601C975 1601 853 1601 731.2 1601C609.3 1601 487.7 1601 365.8 1601C244 1601 122 1601 61 1601L0 1601Z" fill="#b58ce4"></path><path d="M0 1391L61 1380C122 1369 244 1347 365.8 1323.7C487.7 1300.3 609.3 1275.7 731.2 1274.7C853 1273.7 975 1296.3 1097 1310.5C1219 1324.7 1341 1330.3 1463 1313.5C1585 1296.7 1707 1257.3 1828.8 1245C1950.7 1232.7 2072.3 1247.3 2194.2 1263.2C2316 1279 2438 1296 2499 1304.5L2560 1313L2560 1601L2499 1601C2438 1601 2316 1601 2194.2 1601C2072.3 1601 1950.7 1601 1828.8 1601C1707 1601 1585 1601 1463 1601C1341 1601 1219 1601 1097 1601C975 1601 853 1601 731.2 1601C609.3 1601 487.7 1601 365.8 1601C244 1601 122 1601 61 1601L0 1601Z" fill="#c97acf"></path><path d="M0 1393L61 1379.3C122 1365.7 244 1338.3 365.8 1345.2C487.7 1352 609.3 1393 731.2 1386.7C853 1380.3 975 1326.7 1097 1330.2C1219 1333.7 1341 1394.3 1463 1416.3C1585 1438.3 1707 1421.7 1828.8 1416.2C1950.7 1410.7 2072.3 1416.3 2194.2 1412C2316 1407.7 2438 1393.3 2499 1386.2L2560 1379L2560 1601L2499 1601C2438 1601 2316 1601 2194.2 1601C2072.3 1601 1950.7 1601 1828.8 1601C1707 1601 1585 1601 1463 1601C1341 1601 1219 1601 1097 1601C975 1601 853 1601 731.2 1601C609.3 1601 487.7 1601 365.8 1601C244 1601 122 1601 61 1601L0 1601Z" fill="#d967b5"></path><path d="M0 1433L61 1453.2C122 1473.3 244 1513.7 365.8 1519.5C487.7 1525.3 609.3 1496.7 731.2 1493C853 1489.3 975 1510.7 1097 1511.2C1219 1511.7 1341 1491.3 1463 1473C1585 1454.7 1707 1438.3 1828.8 1429C1950.7 1419.7 2072.3 1417.3 2194.2 1444C2316 1470.7 2438 1526.3 2499 1554.2L2560 1582L2560 1601L2499 1601C2438 1601 2316 1601 2194.2 1601C2072.3 1601 1950.7 1601 1828.8 1601C1707 1601 1585 1601 1463 1601C1341 1601 1219 1601 1097 1601C975 1601 853 1601 731.2 1601C609.3 1601 487.7 1601 365.8 1601C244 1601 122 1601 61 1601L0 1601Z" fill="#e35495"></path></svg>