<svg xmlns="http://www.w3.org/2000/svg" xmlns:xlink="http://www.w3.org/1999/xlink" version="1.1" width="1000" height="1000" viewBox="0 0 1000 1000" xml:space="preserve">
<desc>Created with Fabric.js 3.5.0</desc>
<defs>
</defs>
<rect x="0" y="0" width="100%" height="100%" fill="#ffffff"/>
<g transform="matrix(1.1103 0 0 -1.1024 499.635 541.6927)" id="742448">
<g style="" vector-effect="non-scaling-stroke">
		<g transform="matrix(1 0 0 1 0 0)" id="visual">
<rect style="stroke: none; stroke-width: 1; stroke-dasharray: none; stroke-linecap: butt; stroke-dashoffset: 0; stroke-linejoin: miter; stroke-miterlimit: 4; is-custom-font: none; font-file-url: none; fill: rgb(255,255,255); fill-rule: nonzero; opacity: 1;" x="-450" y="-300" rx="0" ry="0" width="900" height="600"/>
</g>
		<g transform="matrix(1 0 0 1 0 202)" id="visual">
<path style="stroke: none; stroke-width: 1; stroke-dasharray: none; stroke-linecap: butt; stroke-dashoffset: 0; stroke-linejoin: miter; stroke-miterlimit: 4; is-custom-font: none; font-file-url: none; fill: rgb(105,197,250); fill-rule: nonzero; opacity: 1;" transform=" translate(-450, -502)" d="M 0 403 L 21.5 415.8 C 43 428.7 86 454.3 128.8 466.8 C 171.7 479.3 214.3 478.7 257.2 466.3 C 300 454 343 430 385.8 429.8 C 428.7 429.7 471.3 453.3 514.2 466 C 557 478.7 600 480.3 642.8 474.2 C 685.7 468 728.3 454 771.2 443.3 C 814 432.7 857 425.3 878.5 421.7 L 900 418 L 900 601 L 878.5 601 C 857 601 814 601 771.2 601 C 728.3 601 685.7 601 642.8 601 C 600 601 557 601 514.2 601 C 471.3 601 428.7 601 385.8 601 C 343 601 300 601 257.2 601 C 214.3 601 171.7 601 128.8 601 C 86 601 43 601 21.5 601 L 0 601 Z" stroke-linecap="round"/>
</g>
		<g transform="matrix(1 0 0 1 0 228)" id="visual">
<path style="stroke: none; stroke-width: 1; stroke-dasharray: none; stroke-linecap: butt; stroke-dashoffset: 0; stroke-linejoin: miter; stroke-miterlimit: 4; is-custom-font: none; font-file-url: none; fill: rgb(121,181,252); fill-rule: nonzero; opacity: 1;" transform=" translate(-450, -528)" d="M 0 493 L 21.5 487.5 C 43 482 86 471 128.8 467.5 C 171.7 464 214.3 468 257.2 471 C 300 474 343 476 385.8 481.5 C 428.7 487 471.3 496 514.2 492.3 C 557 488.7 600 472.3 642.8 473.3 C 685.7 474.3 728.3 492.7 771.2 492.5 C 814 492.3 857 473.7 878.5 464.3 L 900 455 L 900 601 L 878.5 601 C 857 601 814 601 771.2 601 C 728.3 601 685.7 601 642.8 601 C 600 601 557 601 514.2 601 C 471.3 601 428.7 601 385.8 601 C 343 601 300 601 257.2 601 C 214.3 601 171.7 601 128.8 601 C 86 601 43 601 21.5 601 L 0 601 Z" stroke-linecap="round"/>
</g>
		<g transform="matrix(1 0 0 1 0 248.5809)" id="visual">
<path style="stroke: none; stroke-width: 1; stroke-dasharray: none; stroke-linecap: butt; stroke-dashoffset: 0; stroke-linejoin: miter; stroke-miterlimit: 4; is-custom-font: none; font-file-url: none; fill: rgb(149,162,246); fill-rule: nonzero; opacity: 1;" transform=" translate(-450, -548.5808)" d="M 0 512 L 21.5 517.3 C 43 522.7 86 533.3 128.8 536.8 C 171.7 540.3 214.3 536.7 257.2 533.2 C 300 529.7 343 526.3 385.8 522 C 428.7 517.7 471.3 512.3 514.2 506.2 C 557 500 600 493 642.8 497.7 C 685.7 502.3 728.3 518.7 771.2 524.7 C 814 530.7 857 526.3 878.5 524.2 L 900 522 L 900 601 L 878.5 601 C 857 601 814 601 771.2 601 C 728.3 601 685.7 601 642.8 601 C 600 601 557 601 514.2 601 C 471.3 601 428.7 601 385.8 601 C 343 601 300 601 257.2 601 C 214.3 601 171.7 601 128.8 601 C 86 601 43 601 21.5 601 L 0 601 Z" stroke-linecap="round"/>
</g>
		<g transform="matrix(1 0 0 1 0 264)" id="visual">
<path style="stroke: none; stroke-width: 1; stroke-dasharray: none; stroke-linecap: butt; stroke-dashoffset: 0; stroke-linejoin: miter; stroke-miterlimit: 4; is-custom-font: none; font-file-url: none; fill: rgb(181,140,228); fill-rule: nonzero; opacity: 1;" transform=" translate(-450, -564)" d="M 0 568 L 21.5 562.8 C 43 557.7 86 547.3 128.8 542.3 C 171.7 537.3 214.3 537.7 257.2 540.5 C 300 543.3 343 548.7 385.8 552 C 428.7 555.3 471.3 556.7 514.2 559.3 C 557 562 600 566 642.8 568.5 C 685.7 571 728.3 572 771.2 564.8 C 814 557.7 857 542.3 878.5 534.7 L 900 527 L 900 601 L 878.5 601 C 857 601 814 601 771.2 601 C 728.3 601 685.7 601 642.8 601 C 600 601 557 601 514.2 601 C 471.3 601 428.7 601 385.8 601 C 343 601 300 601 257.2 601 C 214.3 601 171.7 601 128.8 601 C 86 601 43 601 21.5 601 L 0 601 Z" stroke-linecap="round"/>
</g>
</g>
</g>
<g transform="matrix(1.1096 0 0 1.1024 499.32 -91.2565)" id="853643">
<g style="" vector-effect="non-scaling-stroke">
		<g transform="matrix(1 0 0 1 0 0)" id="visual">
<rect style="stroke: none; stroke-width: 1; stroke-dasharray: none; stroke-linecap: butt; stroke-dashoffset: 0; stroke-linejoin: miter; stroke-miterlimit: 4; is-custom-font: none; font-file-url: none; fill: rgb(255,255,255); fill-rule: nonzero; opacity: 1;" x="-450" y="-300" rx="0" ry="0" width="900" height="600"/>
</g>
		<g transform="matrix(1 0 0 1 0 202)" id="visual">
<path style="stroke: none; stroke-width: 1; stroke-dasharray: none; stroke-linecap: butt; stroke-dashoffset: 0; stroke-linejoin: miter; stroke-miterlimit: 4; is-custom-font: none; font-file-url: none; fill: rgb(105,197,250); fill-rule: nonzero; opacity: 1;" transform=" translate(-450, -502)" d="M 0 403 L 21.5 415.8 C 43 428.7 86 454.3 128.8 466.8 C 171.7 479.3 214.3 478.7 257.2 466.3 C 300 454 343 430 385.8 429.8 C 428.7 429.7 471.3 453.3 514.2 466 C 557 478.7 600 480.3 642.8 474.2 C 685.7 468 728.3 454 771.2 443.3 C 814 432.7 857 425.3 878.5 421.7 L 900 418 L 900 601 L 878.5 601 C 857 601 814 601 771.2 601 C 728.3 601 685.7 601 642.8 601 C 600 601 557 601 514.2 601 C 471.3 601 428.7 601 385.8 601 C 343 601 300 601 257.2 601 C 214.3 601 171.7 601 128.8 601 C 86 601 43 601 21.5 601 L 0 601 Z" stroke-linecap="round"/>
</g>
		<g transform="matrix(1 0 0 1 0 228)" id="visual">
<path style="stroke: none; stroke-width: 1; stroke-dasharray: none; stroke-linecap: butt; stroke-dashoffset: 0; stroke-linejoin: miter; stroke-miterlimit: 4; is-custom-font: none; font-file-url: none; fill: rgb(121,181,252); fill-rule: nonzero; opacity: 1;" transform=" translate(-450, -528)" d="M 0 493 L 21.5 487.5 C 43 482 86 471 128.8 467.5 C 171.7 464 214.3 468 257.2 471 C 300 474 343 476 385.8 481.5 C 428.7 487 471.3 496 514.2 492.3 C 557 488.7 600 472.3 642.8 473.3 C 685.7 474.3 728.3 492.7 771.2 492.5 C 814 492.3 857 473.7 878.5 464.3 L 900 455 L 900 601 L 878.5 601 C 857 601 814 601 771.2 601 C 728.3 601 685.7 601 642.8 601 C 600 601 557 601 514.2 601 C 471.3 601 428.7 601 385.8 601 C 343 601 300 601 257.2 601 C 214.3 601 171.7 601 128.8 601 C 86 601 43 601 21.5 601 L 0 601 Z" stroke-linecap="round"/>
</g>
		<g transform="matrix(1 0 0 1 0 248.5809)" id="visual">
<path style="stroke: none; stroke-width: 1; stroke-dasharray: none; stroke-linecap: butt; stroke-dashoffset: 0; stroke-linejoin: miter; stroke-miterlimit: 4; is-custom-font: none; font-file-url: none; fill: rgb(149,162,246); fill-rule: nonzero; opacity: 1;" transform=" translate(-450, -548.5808)" d="M 0 512 L 21.5 517.3 C 43 522.7 86 533.3 128.8 536.8 C 171.7 540.3 214.3 536.7 257.2 533.2 C 300 529.7 343 526.3 385.8 522 C 428.7 517.7 471.3 512.3 514.2 506.2 C 557 500 600 493 642.8 497.7 C 685.7 502.3 728.3 518.7 771.2 524.7 C 814 530.7 857 526.3 878.5 524.2 L 900 522 L 900 601 L 878.5 601 C 857 601 814 601 771.2 601 C 728.3 601 685.7 601 642.8 601 C 600 601 557 601 514.2 601 C 471.3 601 428.7 601 385.8 601 C 343 601 300 601 257.2 601 C 214.3 601 171.7 601 128.8 601 C 86 601 43 601 21.5 601 L 0 601 Z" stroke-linecap="round"/>
</g>
		<g transform="matrix(1 0 0 1 0 264)" id="visual">
<path style="stroke: none; stroke-width: 1; stroke-dasharray: none; stroke-linecap: butt; stroke-dashoffset: 0; stroke-linejoin: miter; stroke-miterlimit: 4; is-custom-font: none; font-file-url: none; fill: rgb(181,140,228); fill-rule: nonzero; opacity: 1;" transform=" translate(-450, -564)" d="M 0 568 L 21.5 562.8 C 43 557.7 86 547.3 128.8 542.3 C 171.7 537.3 214.3 537.7 257.2 540.5 C 300 543.3 343 548.7 385.8 552 C 428.7 555.3 471.3 556.7 514.2 559.3 C 557 562 600 566 642.8 568.5 C 685.7 571 728.3 572 771.2 564.8 C 814 557.7 857 542.3 878.5 534.7 L 900 527 L 900 601 L 878.5 601 C 857 601 814 601 771.2 601 C 728.3 601 685.7 601 642.8 601 C 600 601 557 601 514.2 601 C 471.3 601 428.7 601 385.8 601 C 343 601 300 601 257.2 601 C 214.3 601 171.7 601 128.8 601 C 86 601 43 601 21.5 601 L 0 601 Z" stroke-linecap="round"/>
</g>
</g>
</g>
</svg>