<svg xmlns="http://www.w3.org/2000/svg" xmlns:xlink="http://www.w3.org/1999/xlink" version="1.1" width="1000" height="1000" viewBox="0 0 1000 1000" xml:space="preserve">
<desc>Created with Fabric.js 3.5.0</desc>
<defs>
</defs>
<rect x="0" y="0" width="100%" height="100%" fill="#ffffff"/>
<g transform="matrix(-1.1112 0 0 -1.1112 500.0498 594.8081)" id="255404">
<g style="" vector-effect="non-scaling-stroke">
		<g transform="matrix(1 0 0 1 0 0)" id="visual">
<rect style="stroke: none; stroke-width: 1; stroke-dasharray: none; stroke-linecap: butt; stroke-dashoffset: 0; stroke-linejoin: miter; stroke-miterlimit: 4; is-custom-font: none; font-file-url: none; fill: rgb(255,255,255); fill-rule: nonzero; opacity: 1;" x="-450" y="-300" rx="0" ry="0" width="900" height="600"/>
</g>
		<g transform="matrix(1 0 0 1 0 250.0444)" id="visual">
<path style="stroke: none; stroke-width: 1; stroke-dasharray: none; stroke-linecap: butt; stroke-dashoffset: 0; stroke-linejoin: miter; stroke-miterlimit: 4; is-custom-font: none; font-file-url: none; fill: rgb(105,197,250); fill-rule: nonzero; opacity: 1;" transform=" translate(-450, -550.0443)" d="M 0 545 L 12.5 543.3 C 25 541.7 50 538.3 75 538.2 C 100 538 125 541 150 538.5 C 175 536 200 528 225 520.3 C 250 512.7 275 505.3 300 501.7 C 325 498 350 498 375 503.2 C 400 508.3 425 518.7 450 527.3 C 475 536 500 543 525 538.5 C 550 534 575 518 600 514.3 C 625 510.7 650 519.3 675 527.5 C 700 535.7 725 543.3 750 539.8 C 775 536.3 800 521.7 825 516.8 C 850 512 875 517 887.5 519.5 L 900 522 L 900 601 L 887.5 601 C 875 601 850 601 825 601 C 800 601 775 601 750 601 C 725 601 700 601 675 601 C 650 601 625 601 600 601 C 575 601 550 601 525 601 C 500 601 475 601 450 601 C 425 601 400 601 375 601 C 350 601 325 601 300 601 C 275 601 250 601 225 601 C 200 601 175 601 150 601 C 125 601 100 601 75 601 C 50 601 25 601 12.5 601 L 0 601 Z" stroke-linecap="round"/>
</g>
		<g transform="matrix(1 0 0 1 0 265.0223)" id="visual">
<path style="stroke: none; stroke-width: 1; stroke-dasharray: none; stroke-linecap: butt; stroke-dashoffset: 0; stroke-linejoin: miter; stroke-miterlimit: 4; is-custom-font: none; font-file-url: none; fill: rgb(134,172,250); fill-rule: nonzero; opacity: 1;" transform=" translate(-450, -565.0223)" d="M 0 559 L 12.5 554.3 C 25 549.7 50 540.3 75 540.3 C 100 540.3 125 549.7 150 549.2 C 175 548.7 200 538.3 225 538 C 250 537.7 275 547.3 300 547 C 325 546.7 350 536.3 375 532 C 400 527.7 425 529.3 450 529.5 C 475 529.7 500 528.3 525 530.3 C 550 532.3 575 537.7 600 544.2 C 625 550.7 650 558.3 675 560.8 C 700 563.3 725 560.7 750 560.3 C 775 560 800 562 825 558.3 C 850 554.7 875 545.3 887.5 540.7 L 900 536 L 900 601 L 887.5 601 C 875 601 850 601 825 601 C 800 601 775 601 750 601 C 725 601 700 601 675 601 C 650 601 625 601 600 601 C 575 601 550 601 525 601 C 500 601 475 601 450 601 C 425 601 400 601 375 601 C 350 601 325 601 300 601 C 275 601 250 601 225 601 C 200 601 175 601 150 601 C 125 601 100 601 75 601 C 50 601 25 601 12.5 601 L 0 601 Z" stroke-linecap="round"/>
</g>
		<g transform="matrix(1 0 0 1 0 280)" id="visual">
<path style="stroke: none; stroke-width: 1; stroke-dasharray: none; stroke-linecap: butt; stroke-dashoffset: 0; stroke-linejoin: miter; stroke-miterlimit: 4; is-custom-font: none; font-file-url: none; fill: rgb(181,140,228); fill-rule: nonzero; opacity: 1;" transform=" translate(-450, -580)" d="M 0 559 L 12.5 562.5 C 25 566 50 573 75 571.8 C 100 570.7 125 561.3 150 561.3 C 175 561.3 200 570.7 225 575.7 C 250 580.7 275 581.3 300 577.3 C 325 573.3 350 564.7 375 564.5 C 400 564.3 425 572.7 450 575.8 C 475 579 500 577 525 573.5 C 550 570 575 565 600 563.8 C 625 562.7 650 565.3 675 564.5 C 700 563.7 725 559.3 750 560.8 C 775 562.3 800 569.7 825 574.5 C 850 579.3 875 581.7 887.5 582.8 L 900 584 L 900 601 L 887.5 601 C 875 601 850 601 825 601 C 800 601 775 601 750 601 C 725 601 700 601 675 601 C 650 601 625 601 600 601 C 575 601 550 601 525 601 C 500 601 475 601 450 601 C 425 601 400 601 375 601 C 350 601 325 601 300 601 C 275 601 250 601 225 601 C 200 601 175 601 150 601 C 125 601 100 601 75 601 C 50 601 25 601 12.5 601 L 0 601 Z" stroke-linecap="round"/>
</g>
</g>
</g>
<g transform="matrix(-1.1133 0 0 1.106 499.9846 -48.2035)" id="760427">
<g style="" vector-effect="non-scaling-stroke">
		<g transform="matrix(1 0 0 1 0 0)" id="visual">
<rect style="stroke: none; stroke-width: 1; stroke-dasharray: none; stroke-linecap: butt; stroke-dashoffset: 0; stroke-linejoin: miter; stroke-miterlimit: 4; is-custom-font: none; font-file-url: none; fill: rgb(255,255,255); fill-rule: nonzero; opacity: 1;" x="-450" y="-300" rx="0" ry="0" width="900" height="600"/>
</g>
		<g transform="matrix(1 0 0 1 0 202)" id="visual">
<path style="stroke: none; stroke-width: 1; stroke-dasharray: none; stroke-linecap: butt; stroke-dashoffset: 0; stroke-linejoin: miter; stroke-miterlimit: 4; is-custom-font: none; font-file-url: none; fill: rgb(105,197,250); fill-rule: nonzero; opacity: 1;" transform=" translate(-450, -502)" d="M 0 403 L 21.5 415.8 C 43 428.7 86 454.3 128.8 466.8 C 171.7 479.3 214.3 478.7 257.2 466.3 C 300 454 343 430 385.8 429.8 C 428.7 429.7 471.3 453.3 514.2 466 C 557 478.7 600 480.3 642.8 474.2 C 685.7 468 728.3 454 771.2 443.3 C 814 432.7 857 425.3 878.5 421.7 L 900 418 L 900 601 L 878.5 601 C 857 601 814 601 771.2 601 C 728.3 601 685.7 601 642.8 601 C 600 601 557 601 514.2 601 C 471.3 601 428.7 601 385.8 601 C 343 601 300 601 257.2 601 C 214.3 601 171.7 601 128.8 601 C 86 601 43 601 21.5 601 L 0 601 Z" stroke-linecap="round"/>
</g>
		<g transform="matrix(1 0 0 1 0 228)" id="visual">
<path style="stroke: none; stroke-width: 1; stroke-dasharray: none; stroke-linecap: butt; stroke-dashoffset: 0; stroke-linejoin: miter; stroke-miterlimit: 4; is-custom-font: none; font-file-url: none; fill: rgb(121,181,252); fill-rule: nonzero; opacity: 1;" transform=" translate(-450, -528)" d="M 0 493 L 21.5 487.5 C 43 482 86 471 128.8 467.5 C 171.7 464 214.3 468 257.2 471 C 300 474 343 476 385.8 481.5 C 428.7 487 471.3 496 514.2 492.3 C 557 488.7 600 472.3 642.8 473.3 C 685.7 474.3 728.3 492.7 771.2 492.5 C 814 492.3 857 473.7 878.5 464.3 L 900 455 L 900 601 L 878.5 601 C 857 601 814 601 771.2 601 C 728.3 601 685.7 601 642.8 601 C 600 601 557 601 514.2 601 C 471.3 601 428.7 601 385.8 601 C 343 601 300 601 257.2 601 C 214.3 601 171.7 601 128.8 601 C 86 601 43 601 21.5 601 L 0 601 Z" stroke-linecap="round"/>
</g>
		<g transform="matrix(1 0 0 1 0 248.5809)" id="visual">
<path style="stroke: none; stroke-width: 1; stroke-dasharray: none; stroke-linecap: butt; stroke-dashoffset: 0; stroke-linejoin: miter; stroke-miterlimit: 4; is-custom-font: none; font-file-url: none; fill: rgb(149,162,246); fill-rule: nonzero; opacity: 1;" transform=" translate(-450, -548.5808)" d="M 0 512 L 21.5 517.3 C 43 522.7 86 533.3 128.8 536.8 C 171.7 540.3 214.3 536.7 257.2 533.2 C 300 529.7 343 526.3 385.8 522 C 428.7 517.7 471.3 512.3 514.2 506.2 C 557 500 600 493 642.8 497.7 C 685.7 502.3 728.3 518.7 771.2 524.7 C 814 530.7 857 526.3 878.5 524.2 L 900 522 L 900 601 L 878.5 601 C 857 601 814 601 771.2 601 C 728.3 601 685.7 601 642.8 601 C 600 601 557 601 514.2 601 C 471.3 601 428.7 601 385.8 601 C 343 601 300 601 257.2 601 C 214.3 601 171.7 601 128.8 601 C 86 601 43 601 21.5 601 L 0 601 Z" stroke-linecap="round"/>
</g>
		<g transform="matrix(1 0 0 1 0 264)" id="visual">
<path style="stroke: none; stroke-width: 1; stroke-dasharray: none; stroke-linecap: butt; stroke-dashoffset: 0; stroke-linejoin: miter; stroke-miterlimit: 4; is-custom-font: none; font-file-url: none; fill: rgb(181,140,228); fill-rule: nonzero; opacity: 1;" transform=" translate(-450, -564)" d="M 0 568 L 21.5 562.8 C 43 557.7 86 547.3 128.8 542.3 C 171.7 537.3 214.3 537.7 257.2 540.5 C 300 543.3 343 548.7 385.8 552 C 428.7 555.3 471.3 556.7 514.2 559.3 C 557 562 600 566 642.8 568.5 C 685.7 571 728.3 572 771.2 564.8 C 814 557.7 857 542.3 878.5 534.7 L 900 527 L 900 601 L 878.5 601 C 857 601 814 601 771.2 601 C 728.3 601 685.7 601 642.8 601 C 600 601 557 601 514.2 601 C 471.3 601 428.7 601 385.8 601 C 343 601 300 601 257.2 601 C 214.3 601 171.7 601 128.8 601 C 86 601 43 601 21.5 601 L 0 601 Z" stroke-linecap="round"/>
</g>
</g>
</g>
</svg>